<?xml version="1.0" encoding="UTF-8"?>
<svg width="242px" height="242px" viewBox="0 0 242 242" version="1.1" xmlns="http://www.w3.org/2000/svg" xmlns:xlink="http://www.w3.org/1999/xlink">
    <!-- Generator: Sketch 42 (36781) - http://www.bohemiancoding.com/sketch -->
    <title>first</title>
    <desc>Created with Sketch.</desc>
    <defs></defs>
    <g id="Page-1" stroke="none" stroke-width="1" fill="none" fill-rule="evenodd">
        <g id="first" fill="#FFFFFF">
            <path d="M199.875165,130.660221 C191.089673,96.0212307 155.482396,79.4362604 152.063477,93.0942106 L151.578225,95.0507274 C151.578225,95.0507274 134.99547,129.689718 134.99547,89.6841545 C134.99547,49.6808072 147.67627,59.9287014 122.791059,50.1727062 C97.9169274,40.4100636 66.6879933,42.3577175 47.1782186,74.5638022 C27.6617966,106.761024 47.6634702,179.44906 110.595511,194.084161 C173.529768,208.712614 208.660657,165.296995 199.875165,130.660221 Z M115.235315,59.2883465 C120.488884,59.2883465 124.747576,63.4340351 124.747576,68.5568744 C124.747576,73.6730663 120.488884,77.827618 115.235315,77.827618 C109.981746,77.827618 105.723053,73.6730663 105.723053,68.5568744 C105.723053,63.4340351 109.981746,59.2883465 115.235315,59.2883465 Z M84.9857468,62.2131509 C91.5887143,62.2131509 96.9375611,65.7007586 96.9375611,70.0104135 C96.9375611,74.3222842 91.5887143,77.8187549 84.9857468,77.8187549 C78.3805636,77.8187549 73.0317168,74.3222842 73.0317168,70.0104135 C73.0317168,65.7096216 78.3894266,62.2131509 84.9857468,62.2131509 Z M62.057053,73.4293326 C67.042515,73.4293326 71.0840629,77.4642332 71.0840629,82.4496952 C71.0840629,87.4351572 67.042515,91.4767051 62.057053,91.4767051 C57.071591,91.4767051 53.0300431,87.4351572 53.0300431,82.4496952 C53.0300431,77.4730962 57.071591,73.4293326 62.057053,73.4293326 Z M49.1258724,112.949644 C49.1258724,106.752161 52.9524915,101.733462 57.6609834,101.733462 C62.3783384,101.733462 66.2027417,106.752161 66.2027417,112.949644 C66.2027417,119.147127 62.3783384,124.176904 57.6609834,124.176904 C52.9524915,124.168041 49.1258724,119.147127 49.1258724,112.949644 Z M68.6356471,151.969193 C64.0556694,151.969193 60.3442698,147.079009 60.3442698,141.036629 C60.3442698,135.003112 64.0556694,130.112928 68.6356471,130.112928 C73.2134092,130.112928 76.9270244,135.003112 76.9270244,141.036629 C76.9270244,147.079009 73.2222722,151.969193 68.6356471,151.969193 Z M90.3766931,170.97599 C84.8461539,170.97599 80.3548065,166.717298 80.3548065,161.472592 C80.3548065,156.227886 84.8372908,151.969193 90.3766931,151.969193 C95.9160953,151.969193 100.400795,156.227886 100.400795,161.472592 C100.400795,166.717298 95.9072323,170.97599 90.3766931,170.97599 Z M118.895752,182.712876 C111.62584,182.712876 105.723053,178.669112 105.723053,173.68365 C105.723053,168.698188 111.62584,164.65664 118.895752,164.65664 C126.167879,164.65664 132.070666,168.698188 132.070666,173.68365 C132.061803,178.669112 126.167879,182.712876 118.895752,182.712876 Z M139.39154,128.719214 C141.711442,120.957404 148.617968,116.153634 154.824315,117.997147 C161.030661,119.849523 164.181473,127.637923 161.870434,135.410812 C159.550533,143.192565 152.644006,147.987471 146.446523,146.135095 C140.22245,144.300445 137.073854,136.500967 139.39154,128.719214 Z M155.378255,182.081384 C148.611321,184.746944 141.642753,183.144949 139.816966,178.496283 C138.000042,173.858695 142.006138,167.947045 148.775287,165.279269 C155.544437,162.622572 162.510789,164.215704 164.336576,168.855507 C166.155716,173.501958 162.138541,179.422471 155.378255,182.081384 Z" id="Page-1"></path>
        </g>
    </g>
</svg>